<svg xmlns="http://www.w3.org/2000/svg" viewBox="0 0 256 256" width="256" height="256">
  <defs>
    <linearGradient id="djBg" x1="0%" y1="0%" x2="100%" y2="100%">
      <stop offset="0%" stop-color="#092E20"/>
      <stop offset="100%" stop-color="#041B12"/>
    </linearGradient>
    <linearGradient id="djAccent" x1="0%" y1="0%" x2="100%" y2="100%">
      <stop offset="0%" stop-color="#44B78B"/>
      <stop offset="100%" stop-color="#2BA977"/>
    </linearGradient>
    <filter id="djShadow" x="-10%" y="-10%" width="120%" height="120%">
      <feDropShadow dx="0" dy="4" stdDeviation="6" flood-color="#000000" flood-opacity="0.3"/>
    </filter>
  </defs>

  <!-- Circular background container -->
  <circle cx="128" cy="128" r="116" fill="url(#djBg)" stroke="#44B78B" stroke-width="4" filter="url(#djShadow)"/>

  <!-- Django Iconic 'dj' emblem -->
  <g fill="#FFFFFF">
    <!-- Letter 'd' -->
    <path d="M76 138 C76 156 88 168 104 168 C118 168 126 158 128 152 L128 166 L144 166 L144 76 L128 76 L128 116 C124 110 116 106 104 106 C88 106 76 118 76 138 Z M92 137 C92 126 99 119 108 119 C117 119 126 125 128 132 L128 143 C126 150 117 155 108 155 C99 155 92 148 92 137 Z"/>
    
    <!-- Letter 'j' -->
    <rect x="156" y="108" width="16" height="58" rx="2"/>
    <path d="M172 166 C172 186 160 196 142 196 C134 196 128 194 124 190 L128 178 C132 181 136 183 142 183 C152 183 156 177 156 166 Z"/>
    <circle cx="164" cy="94" r="8" fill="url(#djAccent)"/>
  </g>

  <!-- Small text label beneath -->
  <text x="128" y="218" text-anchor="middle" font-family="'Poppins', sans-serif" font-size="16" font-weight="700" fill="#44B78B" letter-spacing="3">DJANGO</text>
</svg>
